<svg width="50" height="50" viewBox="0 0 50 50" fill="none" xmlns="http://www.w3.org/2000/svg">
<circle cx="25" cy="25" r="25" fill="white"/>
<path fill-rule="evenodd" clip-rule="evenodd" d="M25 50C38.8071 50 50 38.8071 50 25C50 11.1929 38.8071 0 25 0C11.1929 0 0 11.1929 0 25C0 38.8071 11.1929 50 25 50ZM22.2192 11.0248L7 24.7283L23.3312 42.8659L23.1411 37.4241L11.9905 25.0401L22.3819 15.6837L22.2192 11.0248ZM26.5386 36.1624L37.4115 26.3724L25.7442 13.4146L25.5558 8.02051L25.5786 8L42.3069 26.5786L26.6948 40.6358L26.5386 36.1624ZM25.1713 18.8578L31.9913 26.1713L24.6778 32.9913L17.8578 25.6778L25.1713 18.8578Z" fill="black"/>
</svg>
